<svg xmlns="http://www.w3.org/2000/svg" viewBox="0 0 26 26"><defs><style>.cls-1{fill:#fff;}.cls-2{fill:gray;}</style></defs><g id="Layer_2" data-name="Layer 2"><g id="Layer_1-2" data-name="Layer 1"><path class="cls-1" d="M17.94,5h7.88A.18.18,0,0,0,26,4.82h0A4.82,4.82,0,0,0,21.18,0H16.75A4.74,4.74,0,0,0,12,4.75V21h5V15.94a.94.94,0,0,1,.94-.94H22.5a1.18,1.18,0,0,0,1.18-1.18V11.18A1.18,1.18,0,0,0,22.5,10H17.75A.76.76,0,0,1,17,9.24V5.94A.94.94,0,0,1,17.94,5Z"/><path class="cls-2" d="M6,21H5.76A.76.76,0,0,1,5,20.24V15.75A.76.76,0,0,1,5.75,15h4.93a1,1,0,0,0,1-1V11a1,1,0,0,0-1-1H5.76A.76.76,0,0,1,5,9.24V0A5,5,0,0,0,0,5V21a5,5,0,0,0,4.88,5h7.6A4.52,4.52,0,0,0,17,21.48V21Z"/></g></g></svg>